# Blender 4.4.3
# www.blender.org
mtllib Base.mtl
o node
v -0.055849 -0.015648 0.021000
v -0.053198 -0.023107 0.021000
v -0.068754 -0.025629 0.014000
v -0.002250 -0.069897 -0.003000
v -0.003958 0.057865 0.021000
v -0.011800 0.056787 0.021000
v 0.011800 0.056787 0.021000
v -0.081299 0.074264 0.006833
v -0.080936 0.074628 0.008075
v -0.065081 -0.034157 0.014000
v -0.049556 -0.030136 0.021000
v -0.057460 -0.007898 0.021000
v -0.058000 0.000000 0.021000
v -0.057460 0.007898 0.021000
v -0.077782 0.077782 0.010650
v -0.019423 0.054651 0.021000
v -0.026684 0.051497 0.021000
v -0.033448 0.047384 0.021000
v -0.039588 0.042388 0.021000
v -0.078724 0.076839 0.010474
v -0.044991 0.036603 0.021000
v -0.049556 0.030136 0.021000
v -0.053198 0.023107 0.021000
v -0.055849 0.015648 0.021000
v -0.080357 0.075207 0.001858
v -0.072964 -0.008859 -0.003000
v -0.071394 -0.017428 -0.003000
v -0.073500 0.000000 -0.003000
v -0.072964 -0.008859 0.008000
v -0.081423 0.074140 0.005500
v -0.081299 0.074264 0.004167
v -0.080936 0.074628 0.002925
v -0.076839 0.078724 0.010474
v 0.003958 0.057865 0.021000
v -0.075207 0.080357 0.009142
v -0.074264 0.081299 0.006833
v -0.074140 0.081423 0.005500
v -0.074628 0.080936 0.008075
v -0.075961 0.079603 0.009960
v 0.025629 0.068754 0.014000
v 0.017074 -0.071459 -0.003000
v 0.034157 -0.065081 0.014000
v 0.026747 -0.068461 0.008000
v -0.002250 0.062103 -0.003000
v 0.044991 0.036603 0.021000
v 0.026747 0.068461 0.014000
v -0.057999 -0.044932 -0.003000
v -0.060489 -0.041753 0.014000
v -0.060489 -0.041753 -0.003000
v -0.065081 -0.034157 -0.003000
v -0.052827 -0.050928 -0.003000
v -0.034157 -0.065081 -0.003000
v -0.026747 -0.068461 0.008000
v -0.025629 -0.068754 0.014000
v -0.024474 -0.068783 0.014000
v -0.034157 -0.065081 0.014000
v -0.024499 -0.069211 -0.003000
v -0.026063 -0.068724 -0.003000
v -0.026063 -0.068724 0.008000
v -0.000000 -0.073500 -0.003000
v 0.044991 -0.036603 0.021000
v 0.053198 -0.023107 0.021000
v 0.055849 -0.015648 0.021000
v 0.057460 -0.007898 0.021000
v 0.068783 -0.024474 0.014000
v 0.068754 -0.025629 0.014000
v -0.074628 0.080936 0.002925
v -0.074264 0.081299 0.004167
v 0.071394 -0.017428 -0.003000
v 0.065081 -0.034157 0.014000
v 0.034157 -0.065081 -0.003000
v 0.000000 0.073500 -0.003000
v -0.034157 0.065081 -0.003000
v -0.041753 0.060489 -0.003000
v -0.044480 0.058352 -0.003000
v -0.048740 0.055016 -0.003000
v -0.076839 0.078724 0.000525
v -0.055016 0.048740 -0.003000
v -0.057999 0.044932 -0.003000
v -0.079603 0.075961 0.001040
v -0.078724 0.076839 0.000525
v -0.060489 0.041753 -0.003000
v -0.065081 0.034157 -0.003000
v -0.068724 0.026063 -0.003000
v -0.069321 0.024145 -0.003000
v -0.071364 0.017590 -0.003000
v -0.072964 0.008859 -0.003000
v 0.024474 -0.068783 0.014000
v -0.000000 -0.073500 0.008000
v 0.039588 0.042388 0.021000
v -0.019423 -0.054651 0.021000
v -0.026747 -0.068461 0.014000
v -0.003958 -0.057865 0.021000
v 0.003958 -0.057865 0.021000
v 0.011800 -0.056787 0.021000
v 0.033448 -0.047384 0.021000
v 0.026684 -0.051497 0.021000
v 0.039588 -0.042388 0.021000
v 0.068754 0.025629 0.014000
v 0.057460 0.007898 0.021000
v 0.058000 -0.000000 0.021000
v 0.068783 0.024474 0.014000
v 0.072964 0.008859 0.008000
v 0.073500 -0.000000 -0.003000
v 0.073500 -0.000000 0.008000
v 0.072964 -0.008859 0.008000
v 0.072964 -0.008859 -0.003000
v 0.071364 0.017590 0.008000
v 0.065081 -0.034157 -0.003000
v -0.017590 0.071364 -0.003000
v -0.026063 0.068724 -0.003000
v -0.024499 0.069211 -0.003000
v -0.014120 0.072000 -0.003000
v -0.077782 0.077782 0.000350
v -0.008859 0.072964 -0.003000
v 0.025629 -0.068754 0.014000
v 0.026747 -0.068461 0.014000
v 0.026747 0.068461 0.008000
v 0.017590 0.071364 -0.003000
v 0.026063 0.068724 0.008000
v 0.017590 0.071364 0.008000
v 0.026063 0.068724 -0.003000
v 0.017074 0.071459 -0.003000
v 0.008859 0.072964 -0.003000
v 0.008859 0.072964 0.008000
v -0.033448 -0.047384 0.021000
v -0.026684 -0.051497 0.021000
v -0.011801 -0.056787 0.021000
v 0.019423 -0.054651 0.021000
v 0.049556 -0.030136 0.021000
v 0.044480 0.058352 -0.003000
v 0.072000 0.014120 -0.003000
v 0.071364 0.017590 -0.003000
v 0.069321 0.024145 -0.003000
v 0.072964 0.008859 -0.003000
v 0.072000 -0.014120 -0.003000
v -0.068724 -0.026063 0.008000
v -0.071364 -0.017590 -0.003000
v -0.068724 -0.026063 -0.003000
v -0.071364 -0.017590 0.008000
v -0.068461 -0.026747 0.008000
v -0.068461 -0.026747 0.014000
v 0.048740 -0.055016 0.014000
v 0.048740 -0.055016 -0.003000
v 0.055016 -0.048740 -0.003000
v 0.055016 -0.048740 0.014000
v 0.060489 -0.041753 -0.003000
v 0.060489 -0.041753 0.014000
v -0.048740 -0.055016 -0.003000
v -0.041753 -0.060489 -0.003000
v -0.041753 -0.060489 0.014000
v -0.048740 -0.055016 0.014000
v -0.055016 -0.048740 0.014000
v -0.055016 -0.048740 -0.003000
v -0.008859 -0.072964 -0.003000
v -0.008859 -0.072964 0.008000
v -0.017590 -0.071364 0.008000
v -0.017590 -0.071364 -0.003000
v 0.068724 0.026063 -0.003000
v 0.068724 0.026063 0.008000
v 0.068461 0.026747 0.014000
v 0.068461 0.026747 0.008000
v 0.041753 -0.060489 -0.003000
v 0.041753 -0.060489 0.014000
v -0.075961 0.079603 0.001040
v -0.075207 0.080357 0.001858
v -0.079603 0.075961 0.009960
v -0.080357 0.075207 0.009142
v 0.033448 0.047384 0.021000
v 0.026684 0.051497 0.021000
v 0.019423 0.054651 0.021000
v 0.055849 0.015648 0.021000
v 0.053198 0.023107 0.021000
v 0.049556 0.030136 0.021000
v 0.068724 -0.026063 0.008000
v 0.068724 -0.026063 -0.003000
v 0.071364 -0.017590 -0.003000
v 0.071364 -0.017590 0.008000
v 0.055016 0.048740 -0.003000
v 0.060489 0.041753 -0.003000
v 0.060489 0.041753 0.014000
v 0.055016 0.048740 0.014000
v 0.065081 0.034157 -0.003000
v 0.065081 0.034157 0.014000
v 0.068461 -0.026747 0.008000
v 0.068461 -0.026747 0.014000
v 0.017590 -0.071364 0.008000
v 0.008859 -0.072964 0.008000
v 0.008859 -0.072964 -0.003000
v 0.017590 -0.071364 -0.003000
v 0.026063 -0.068724 -0.003000
v 0.026063 -0.068724 0.008000
v 0.034157 0.065081 -0.003000
v 0.041753 0.060489 0.014000
v 0.034157 0.065081 0.014000
v 0.041753 0.060489 -0.003000
v -0.039588 -0.042388 0.021000
v -0.044991 -0.036603 0.021000
v 0.048740 0.055016 -0.003000
v 0.048740 0.055016 0.014000
vn -0.9641 -0.2530 0.0805
vn 0.3339 -0.2357 0.9127
vn -0.9670 -0.1772 0.1832
vn -0.3628 -0.1880 0.9127
vn -0.3766 -0.1717 0.9103
vn -0.4217 -0.0876 0.9025
vn -0.4087 -0.1072 0.9063
vn -0.0000 -0.0000 1.0000
vn -0.3858 -0.1371 0.9124
vn -0.7120 -0.0482 0.7005
vn -0.9836 -0.1803 -0.0000
vn -0.9547 -0.2975 0.0080
vn -0.8558 -0.5173 -0.0000
vn -0.0000 -0.0000 -1.0000
vn 0.1014 0.9948 -0.0000
vn 0.1772 0.9670 0.1832
vn 0.2530 0.9641 0.0805
vn -0.7071 0.7071 -0.0000
vn -0.8590 -0.0744 0.5065
vn -0.9139 -0.0876 0.3964
vn -0.2530 -0.9641 0.0805
vn -0.0709 0.2529 0.9649
vn -0.4881 -0.0334 0.8721
vn -0.5109 -0.0204 0.8594
vn -0.3754 0.0257 0.9265
vn -0.4947 -0.0144 0.8690
vn 0.3593 -0.9332 -0.0000
vn 0.3262 -0.2555 0.9101
vn 0.8814 -0.0533 0.4694
vn 0.9670 -0.1772 0.1832
vn 0.3548 -0.2145 0.9100
vn 0.4217 -0.0876 0.9025
vn -0.5091 0.0049 -0.8607
vn -0.7252 -0.0217 -0.6882
vn -0.9119 -0.4104 -0.0037
vn -0.9098 -0.4150 -0.0000
vn 0.6167 0.7872 -0.0000
vn 0.0438 -0.0080 -0.9990
vn 0.9836 -0.1803 -0.0000
vn 0.0979 0.9900 0.1012
vn -0.3362 0.0203 -0.9416
vn 0.9547 0.2975 0.0080
vn 0.3592 -0.9332 -0.0000
vn 0.0093 -0.0509 -0.9987
vn 0.0093 -0.0510 -0.9987
vn 0.0604 -0.9982 -0.0000
vn 0.2130 0.3524 0.9113
vn 0.1632 0.3758 0.9122
vn 0.1712 0.3753 0.9110
vn 0.3262 0.2555 0.9101
vn 0.4150 0.9098 -0.0000
vn -0.0443 0.3223 0.9456
vn -0.0000 0.4505 0.8928
vn 0.0618 0.4498 0.8910
vn 0.1124 0.4012 0.9091
vn 0.1068 0.4071 0.9071
vn -0.9900 -0.0979 0.1012
vn -0.9482 -0.0908 0.3043
vn -0.3548 -0.2145 0.9100
vn -0.3339 -0.2357 0.9127
vn -0.3262 -0.2555 0.9101
vn -0.4150 -0.9098 -0.0000
vn -0.5173 -0.8558 -0.0000
vn -0.2831 0.0588 0.9573
vn -0.1068 -0.4071 0.9071
vn -0.2975 -0.9547 0.0080
vn -0.3593 -0.9332 -0.0000
vn -0.0533 -0.8814 0.4694
vn -0.1772 -0.9670 0.1832
vn -0.0604 -0.9982 -0.0000
vn -0.0716 0.2513 0.9653
vn -0.0903 0.2079 0.9740
vn -0.1074 0.1766 0.9784
vn -0.1242 0.1527 0.9804
vn -0.1425 0.1331 0.9808
vn -0.1639 0.1157 0.9797
vn -0.1910 0.0990 0.9766
vn -0.2282 0.0811 0.9702
vn -0.2516 0.0719 0.9651
vn 0.2130 -0.3524 0.9113
vn 0.1712 -0.3753 0.9110
vn 0.3628 -0.1880 0.9127
vn -0.8670 -0.0470 -0.4960
vn -0.9948 -0.1014 -0.0000
vn -0.0031 -0.0006 -1.0000
vn -0.0031 -0.0005 -1.0000
vn -0.9908 -0.0907 -0.1006
vn -0.8956 -0.0542 -0.4416
vn -0.9517 -0.0696 -0.2991
vn 0.9547 0.2975 -0.0000
vn 0.0876 0.9139 0.3964
vn 0.0908 0.9482 0.3043
vn 0.0907 0.9908 -0.1006
vn -0.7072 0.7070 0.0001
vn 0.0145 0.4946 0.8690
vn 0.0205 0.5115 0.8590
vn -0.7072 0.7070 -0.0001
vn 0.0744 0.8590 0.5065
vn 0.0482 0.7120 0.7005
vn 0.5173 -0.8558 -0.0000
vn 0.4104 -0.9119 -0.0037
vn 0.4150 -0.9098 -0.0000
vn -0.0203 0.3362 -0.9416
vn 0.3548 0.2145 0.9100
vn 0.3339 0.2357 0.9127
vn 0.2926 0.2926 0.9104
vn 0.2990 0.2793 0.9125
vn 0.2975 0.9547 0.0080
vn 0.3593 0.9332 -0.0000
vn -0.7872 -0.6167 -0.0000
vn -0.0640 -0.0640 -0.9959
vn -0.4104 -0.9119 -0.0037
vn -0.0207 -0.8253 0.5643
vn -0.0000 -0.7861 0.6180
vn -0.0618 -0.4498 0.8910
vn -0.0131 -0.5221 0.8528
vn -0.0000 -0.5397 0.8418
vn -0.1712 -0.3753 0.9110
vn -0.2130 -0.3524 0.9113
vn -0.2975 -0.9547 -0.0000
vn -0.0671 -0.2153 -0.9742
vn -0.0671 -0.2154 -0.9742
vn 0.2926 -0.2926 0.9104
vn 0.2990 -0.2793 0.9125
vn 0.3766 -0.1717 0.9103
vn 0.4087 -0.1072 0.9063
vn 0.3858 -0.1371 0.9124
vn 0.9641 -0.2530 0.0805
vn 0.8253 -0.0207 0.5643
vn 0.7861 -0.0000 0.6180
vn 0.5445 -0.0000 0.8388
vn 0.4881 -0.0334 0.8721
vn 0.5233 -0.0131 0.8521
vn 0.8558 0.5173 -0.0000
vn 0.9982 0.0604 -0.0000
vn 0.9836 0.1803 -0.0000
vn 0.0696 0.9517 -0.2991
vn 0.0542 0.8956 -0.4416
vn 0.0470 0.8671 -0.4960
vn 0.0041 -0.0007 -1.0000
vn 0.0041 -0.0008 -1.0000
vn 0.8558 -0.5173 -0.0000
vn 0.9098 -0.4150 -0.0000
vn 0.0217 0.7252 -0.6882
vn -0.0049 0.5091 -0.8607
vn -0.0463 0.1029 -0.9936
vn -0.0516 0.0853 -0.9950
vn -0.0411 0.1318 -0.9904
vn -0.0574 0.0733 -0.9957
vn -0.0325 0.2142 -0.9762
vn -0.0644 0.0644 -0.9958
vn -0.0733 0.0574 -0.9957
vn -0.0853 0.0516 -0.9950
vn -0.1029 0.0463 -0.9936
vn -0.1318 0.0411 -0.9904
vn -0.2142 0.0325 -0.9762
vn -0.1884 0.0345 -0.9815
vn 0.0207 -0.8253 0.5643
vn 0.0533 -0.8814 0.4694
vn 0.1068 -0.4071 0.9071
vn 0.0131 -0.5221 0.8528
vn 0.0618 -0.4498 0.8910
vn 0.3858 0.1371 0.9124
vn 0.3766 0.1717 0.9103
vn 0.3628 0.1880 0.9127
vn 0.2547 0.3251 0.9108
vn 0.2588 0.3181 0.9121
vn 0.2137 0.3514 0.9115
vn -0.1124 -0.4012 0.9091
vn -0.1632 -0.3758 0.9122
vn -0.2547 -0.3251 0.9108
vn -0.2137 -0.3514 0.9115
vn 0.1632 -0.3758 0.9122
vn 0.1124 -0.4012 0.9091
vn 0.2137 -0.3514 0.9115
vn 0.2547 -0.3251 0.9108
vn 0.2588 -0.3181 0.9121
vn 0.9547 -0.2975 0.0080
vn 0.4087 0.1072 0.9063
vn 0.4217 0.0876 0.9025
vn 0.4881 0.0334 0.8721
vn 0.5233 0.0131 0.8520
vn 0.9641 0.2530 0.0805
vn 0.9670 0.1772 0.1832
vn 0.8814 0.0533 0.4694
vn 0.8253 0.0207 0.5643
vn 0.9119 0.4104 -0.0037
vn 0.9982 -0.0604 -0.0000
vn 0.9119 -0.4104 -0.0037
vn 0.9098 -0.4149 -0.0000
vn -0.0308 0.0987 -0.9946
vn -0.0025 0.0139 -0.9999
vn -0.0025 0.0138 -0.9999
vn -0.0026 0.0138 -0.9999
vn -0.0345 0.1884 -0.9815
vn 0.1772 -0.9670 0.1832
vn 0.2530 -0.9641 0.0805
vn 0.2975 -0.9547 0.0080
vn 0.4104 0.9119 -0.0037
vn 0.2975 0.9547 -0.0000
vn 0.0093 0.0510 -0.9987
vn 0.1803 0.9836 -0.0000
vn -0.2588 -0.3181 0.9121
vn -0.2926 -0.2926 0.9104
vn -0.2990 -0.2793 0.9125
vn 0.0139 0.0026 -0.9999
vn 0.0140 0.0026 -0.9999
vn -0.9547 -0.2975 -0.0000
vn -0.9332 -0.3592 -0.0000
vn -0.9332 -0.3593 -0.0000
vn 0.7071 -0.7071 -0.0000
vn 0.7872 -0.6167 -0.0000
vn -0.6167 -0.7872 -0.0000
vn -0.7071 -0.7071 -0.0000
vn -0.1803 -0.9836 -0.0000
vn 0.9332 0.3593 -0.0000
vn 0.9332 0.3592 -0.0000
vn 0.6167 -0.7872 -0.0000
vn 0.9547 -0.2975 -0.0000
vn 0.7872 0.6167 -0.0000
vn 0.9098 0.4150 -0.0000
vn 0.9332 -0.3592 -0.0000
vn 0.9332 -0.3593 -0.0000
vn 0.1803 -0.9836 -0.0000
vn 0.2975 -0.9547 -0.0000
vn 0.5173 0.8558 -0.0000
vn 0.7071 0.7071 -0.0000
s 0
f 140//1 142//1 3//1
f 148//2 130//2 61//2
f 3//3 29//3 140//3
f 11//4 2//4 10//4
f 142//5 10//5 2//5
f 12//6 3//6 1//6
f 142//7 1//7 3//7
f 2//8 12//8 1//8
f 2//9 1//9 142//9
f 17//8 18//8 6//8
f 6//8 18//8 171//8
f 22//8 23//8 21//8
f 3//10 167//10 168//10
f 29//11 138//11 140//11
f 140//12 137//12 142//12
f 50//13 49//13 10//13
f 139//14 51//14 50//14
f 124//15 37//15 125//15
f 76//14 75//14 78//14
f 51//14 85//14 44//14
f 4//14 41//14 60//14
f 190//14 41//14 191//14
f 40//16 121//16 125//16
f 46//17 121//17 40//17
f 30//18 9//18 168//18
f 168//19 9//19 3//19
f 29//20 3//20 9//20
f 198//8 2//8 11//8
f 2//8 198//8 12//8
f 18//8 198//8 171//8
f 92//21 157//21 54//21
f 6//22 33//22 16//22
f 16//8 17//8 6//8
f 18//8 19//8 21//8
f 12//23 13//23 3//23
f 3//24 13//24 167//24
f 14//25 20//25 13//25
f 13//26 20//26 167//26
f 191//27 43//27 117//27
f 61//28 146//28 148//28
f 66//29 106//29 105//29
f 106//30 66//30 178//30
f 148//31 70//31 130//31
f 63//32 66//32 64//32
f 130//8 64//8 172//8
f 168//18 31//18 30//18
f 25//18 31//18 168//18
f 80//33 81//33 28//33
f 25//34 80//34 28//34
f 25//18 168//18 80//18
f 138//14 27//14 139//14
f 50//35 141//35 139//35
f 142//36 141//36 10//36
f 50//36 10//36 141//36
f 124//14 131//14 44//14
f 44//14 131//14 51//14
f 194//37 131//37 196//37
f 107//38 177//38 136//38
f 106//39 177//39 107//39
f 178//39 177//39 106//39
f 37//40 36//40 125//40
f 144//14 131//14 136//14
f 144//14 4//14 51//14
f 144//14 41//14 4//14
f 131//14 144//14 51//14
f 60//14 158//14 4//14
f 4//14 158//14 51//14
f 139//14 87//14 51//14
f 51//14 87//14 85//14
f 28//14 87//14 27//14
f 27//14 87//14 139//14
f 85//14 87//14 86//14
f 81//41 87//41 28//41
f 85//14 73//14 44//14
f 108//42 160//42 161//42
f 191//43 117//43 192//43
f 41//44 190//44 189//45
f 41//14 189//14 60//14
f 60//46 189//46 89//46
f 194//47 195//47 170//47
f 171//48 170//48 46//48
f 46//49 170//49 195//49
f 182//50 45//50 181//50
f 195//51 118//51 46//51
f 6//52 5//52 33//52
f 33//53 5//53 34//53
f 171//8 5//8 6//8
f 34//8 5//8 171//8
f 171//8 7//8 34//8
f 34//54 7//54 40//54
f 46//55 7//55 171//55
f 7//56 46//56 40//56
f 29//57 8//57 30//57
f 30//18 8//18 9//18
f 9//58 8//58 29//58
f 10//59 48//59 11//59
f 48//60 198//60 11//60
f 198//61 48//61 153//61
f 49//13 48//13 10//13
f 158//14 150//14 51//14
f 158//14 58//14 150//14
f 53//62 92//62 56//62
f 150//63 56//63 151//63
f 18//8 21//8 24//8
f 24//8 198//8 18//8
f 198//8 24//8 12//8
f 23//8 24//8 21//8
f 13//8 12//8 24//8
f 13//8 24//8 14//8
f 20//64 14//64 24//64
f 54//65 128//65 92//65
f 59//66 157//66 92//66
f 53//67 59//67 92//67
f 58//67 59//67 53//67
f 156//68 89//68 54//68
f 157//69 156//69 54//69
f 89//70 156//70 60//70
f 16//71 33//71 15//71
f 16//72 15//72 17//72
f 18//73 17//73 15//73
f 19//74 18//74 15//74
f 167//18 15//18 33//18
f 20//18 15//18 167//18
f 19//75 15//75 21//75
f 22//76 21//76 15//76
f 23//77 22//77 15//77
f 15//78 24//78 23//78
f 24//79 15//79 20//79
f 42//80 164//80 97//80
f 42//81 97//81 117//81
f 70//82 62//82 130//82
f 62//8 64//8 130//8
f 64//8 62//8 63//8
f 25//83 28//83 32//83
f 32//18 31//18 25//18
f 27//14 26//14 28//14
f 26//84 29//84 30//84
f 29//11 26//11 138//11
f 27//85 138//86 26//85
f 31//87 26//87 30//87
f 32//88 28//88 26//88
f 32//89 26//89 31//89
f 134//90 160//90 108//90
f 38//91 40//91 125//91
f 36//92 38//92 125//92
f 37//93 124//93 68//93
f 68//94 166//94 37//94
f 33//18 39//18 167//18
f 34//95 39//95 33//95
f 34//96 40//96 39//96
f 36//97 37//97 35//97
f 166//18 35//18 37//18
f 38//18 36//18 35//18
f 35//18 166//18 167//18
f 39//18 35//18 167//18
f 38//98 35//98 40//98
f 39//99 40//99 35//99
f 144//14 147//14 145//14
f 41//14 71//14 191//14
f 144//14 71//14 41//14
f 42//100 71//100 164//100
f 43//101 191//101 71//101
f 43//102 71//102 117//102
f 117//102 71//102 42//102
f 115//14 72//14 124//14
f 77//103 72//103 115//103
f 83//14 82//14 79//14
f 44//14 111//14 124//14
f 73//14 111//14 44//14
f 189//46 188//46 89//46
f 184//104 181//104 174//104
f 45//105 174//105 181//105
f 182//106 200//106 90//106
f 182//107 90//107 45//107
f 90//8 174//8 45//8
f 120//108 121//108 46//108
f 118//109 120//109 46//109
f 48//110 47//110 153//110
f 48//110 49//110 47//110
f 47//110 154//110 153//110
f 154//14 47//14 51//14
f 50//14 51//14 47//14
f 50//14 47//14 49//14
f 150//14 149//14 51//14
f 154//111 51//111 149//111
f 150//14 58//14 52//14
f 52//63 56//63 150//63
f 53//112 52//112 58//112
f 56//62 52//62 53//62
f 89//113 55//113 54//113
f 88//114 55//114 89//114
f 128//115 54//115 93//115
f 55//116 93//116 54//116
f 88//117 94//117 93//117
f 55//117 88//117 93//117
f 56//118 92//118 127//118
f 56//119 127//119 151//119
f 57//120 158//120 157//120
f 158//121 57//121 58//122
f 59//120 58//120 57//120
f 59//120 57//120 157//120
f 155//14 158//14 60//14
f 156//70 155//70 60//70
f 130//8 98//8 61//8
f 143//123 146//123 98//123
f 146//124 61//124 98//124
f 186//125 62//125 70//125
f 63//126 186//126 66//126
f 62//127 186//127 63//127
f 66//128 186//128 178//128
f 105//129 65//129 66//129
f 65//130 105//130 102//130
f 64//8 101//8 172//8
f 101//8 100//8 172//8
f 102//131 101//131 65//131
f 101//132 64//132 66//132
f 65//133 101//133 66//133
f 131//14 180//14 136//14
f 184//134 180//134 181//134
f 134//90 159//90 160//90
f 105//135 135//135 103//135
f 103//136 135//136 108//136
f 68//137 124//137 67//137
f 68//18 67//18 166//18
f 72//138 67//138 124//138
f 67//139 72//139 166//139
f 144//14 69//14 147//14
f 177//140 69//141 136//141
f 69//14 144//14 136//14
f 176//14 69//14 177//14
f 147//14 69//14 176//14
f 147//142 109//142 148//142
f 148//142 109//142 70//142
f 147//14 176//14 109//14
f 70//143 109//143 186//143
f 71//100 163//100 164//100
f 144//14 163//14 71//14
f 72//144 165//144 166//144
f 77//145 165//145 72//145
f 80//18 168//18 165//18
f 74//14 73//14 85//14
f 83//14 74//14 85//14
f 74//14 83//14 79//14
f 78//14 74//14 79//14
f 75//14 74//14 78//14
f 83//14 85//14 84//14
f 124//14 113//14 115//14
f 111//14 113//14 124//14
f 111//146 73//146 114//146
f 74//147 114//147 73//147
f 111//148 114//148 112//148
f 74//149 75//149 114//149
f 75//149 76//149 114//149
f 115//150 114//150 77//150
f 76//151 78//151 114//151
f 79//152 114//152 78//152
f 80//18 114//18 81//18
f 165//18 114//18 80//18
f 114//18 165//18 77//18
f 82//152 114//152 79//152
f 83//153 114//153 82//153
f 84//154 114//154 83//154
f 84//155 85//155 114//155
f 85//155 86//155 114//155
f 87//156 81//156 114//156
f 87//157 114//157 86//157
f 88//158 89//158 116//158
f 188//159 116//159 89//159
f 95//160 116//160 117//160
f 88//161 116//161 94//161
f 94//162 116//162 95//162
f 161//163 173//163 172//163
f 184//164 173//164 161//164
f 174//165 173//165 184//165
f 194//166 169//166 200//166
f 90//167 200//167 169//167
f 170//168 169//168 194//168
f 90//8 169//8 174//8
f 122//109 120//109 118//109
f 128//169 91//169 92//169
f 127//170 92//170 91//170
f 127//8 91//8 128//8
f 151//171 126//171 152//171
f 127//172 126//172 151//172
f 98//8 129//8 97//8
f 93//8 129//8 128//8
f 98//8 130//8 129//8
f 93//8 94//8 129//8
f 95//8 129//8 94//8
f 97//173 129//173 117//173
f 95//174 117//174 129//174
f 97//175 164//175 96//175
f 96//8 98//8 97//8
f 143//176 96//176 164//176
f 98//177 96//177 143//177
f 186//178 175//178 178//178
f 172//179 99//179 161//179
f 100//180 99//180 172//180
f 101//181 99//181 100//181
f 101//182 102//182 99//182
f 108//183 161//183 99//183
f 103//184 108//184 99//184
f 103//185 99//185 105//185
f 102//186 105//186 99//186
f 180//14 131//14 179//14
f 180//14 183//14 134//14
f 159//14 134//14 183//14
f 184//134 183//134 180//134
f 159//187 183//187 162//187
f 104//135 135//135 105//135
f 106//188 104//188 105//188
f 106//188 107//188 104//188
f 136//14 104//14 107//14
f 135//14 104//14 136//14
f 108//90 133//90 134//90
f 135//136 133//136 108//136
f 109//189 176//189 185//189
f 109//190 185//190 186//190
f 112//191 110//191 111//191
f 111//14 110//14 113//14
f 114//148 110//148 112//148
f 113//192 110//193 115//194
f 110//195 114//195 115//195
f 188//196 187//196 116//196
f 116//197 187//197 117//197
f 192//198 117//198 187//198
f 193//51 118//51 195//51
f 193//199 122//199 118//199
f 131//14 193//14 196//14
f 124//14 123//14 131//14
f 193//14 131//14 123//14
f 193//14 123//14 122//14
f 120//200 119//200 121//200
f 122//200 119//200 120//200
f 123//14 119//14 122//14
f 124//201 119//201 123//201
f 124//202 125//202 119//202
f 121//202 119//202 125//202
f 126//203 197//203 152//203
f 153//204 152//204 197//204
f 197//205 198//205 153//205
f 126//8 127//8 197//8
f 127//8 128//8 197//8
f 129//8 197//8 128//8
f 129//8 130//8 197//8
f 130//8 172//8 197//8
f 179//14 131//14 199//14
f 200//37 199//37 194//37
f 194//37 199//37 131//37
f 133//14 132//14 134//14
f 132//206 133//206 135//207
f 132//14 135//14 136//14
f 180//14 132//14 136//14
f 134//14 132//14 180//14
f 138//208 139//208 137//208
f 138//208 137//208 140//208
f 137//209 139//209 141//209
f 137//210 141//210 142//210
f 145//211 143//211 144//211
f 146//211 143//211 145//211
f 147//212 146//212 145//212
f 146//212 147//212 148//212
f 150//213 151//213 149//213
f 151//213 152//213 149//213
f 153//214 149//214 152//214
f 154//214 149//214 153//214
f 156//215 157//215 155//215
f 158//215 155//215 157//215
f 160//216 159//216 161//216
f 161//217 159//217 162//217
f 143//218 163//218 144//218
f 164//218 163//218 143//218
f 166//18 165//18 167//18
f 167//18 165//18 168//18
f 171//8 169//8 170//8
f 172//8 169//8 171//8
f 173//8 174//8 169//8
f 173//8 169//8 172//8
f 176//219 177//219 175//219
f 177//219 178//219 175//219
f 180//220 179//220 181//220
f 179//220 182//220 181//220
f 161//221 162//221 183//221
f 183//221 184//221 161//221
f 175//222 185//222 176//222
f 186//223 185//223 175//223
f 189//224 187//224 188//224
f 189//224 190//224 187//224
f 190//225 191//225 187//225
f 192//225 187//225 191//225
f 194//226 193//226 195//226
f 194//226 196//226 193//226
f 172//8 171//8 197//8
f 198//8 197//8 171//8
f 179//227 199//227 182//227
f 182//227 199//227 200//227
