# Blender 4.4.3
# www.blender.org
mtllib Wrist3.mtl
o node
v -0.000000 0.075000 -0.037500
v 0.030862 0.047500 0.021302
v 0.013298 0.075000 -0.035063
v 0.013298 0.047500 -0.035063
v 0.033205 0.075000 0.017427
v -0.033205 0.075000 0.017427
v -0.030862 0.075000 0.021302
v -0.028069 0.075000 0.024867
v 0.000000 0.075000 0.037500
v -0.037227 0.075000 -0.004520
v -0.037500 0.075000 -0.000000
v 0.033205 0.047500 -0.017427
v 0.033205 0.075000 -0.017427
v -0.004520 0.075000 0.037227
v -0.008974 0.075000 0.036410
v -0.013298 0.075000 0.035063
v -0.003500 0.062500 0.043000
v -0.002620 0.060179 0.043000
v 0.000000 0.047500 0.037500
v -0.017427 0.047500 0.033205
v -0.013298 0.047500 0.035063
v -0.003099 0.060874 0.043000
v -0.003398 0.061662 0.043000
v -0.033205 0.075000 -0.017427
v -0.037227 0.075000 0.004520
v -0.013298 0.075000 -0.035063
v -0.017427 0.075000 0.033205
v -0.001241 0.059227 0.043000
v -0.008974 0.047500 0.036410
v -0.001988 0.059620 0.043000
v 0.004520 0.075000 0.037227
v 0.004520 0.047500 0.037227
v 0.037500 0.075000 -0.000000
v 0.037227 0.075000 -0.004520
v 0.037227 0.047500 -0.004520
v 0.008974 0.075000 0.036410
v 0.028069 0.075000 0.024867
v 0.030862 0.075000 0.021302
v 0.028069 0.047500 0.024867
v 0.037500 0.047500 -0.000000
v 0.037227 0.075000 0.004520
v 0.013298 0.075000 0.035063
v 0.021302 0.075000 0.030862
v 0.017427 0.075000 0.033205
v 0.024867 0.075000 0.028069
v 0.003500 0.062500 0.043000
v 0.021302 0.047500 0.030862
v 0.024867 0.047500 0.028069
v 0.001988 0.059620 0.043000
v 0.001241 0.059227 0.043000
v 0.008974 0.047500 0.036410
v 0.003099 0.060874 0.043000
v 0.003398 0.061662 0.043000
v 0.017427 0.047500 0.033205
v 0.013298 0.047500 0.035063
v 0.002620 0.060179 0.043000
v 0.037227 0.047500 0.004520
v -0.035063 0.075000 -0.013298
v -0.035063 0.047500 -0.013298
v -0.036410 0.047500 -0.008974
v -0.036410 0.075000 -0.008974
v -0.028069 0.075000 -0.024867
v -0.030862 0.047500 -0.021302
v -0.028069 0.047500 -0.024867
v -0.030862 0.075000 -0.021302
v -0.036410 0.075000 0.008974
v -0.035063 0.047500 0.013298
v -0.036410 0.047500 0.008974
v -0.035063 0.075000 0.013298
v -0.024867 0.075000 -0.028069
v -0.024867 0.047500 -0.028069
v 0.017427 0.047500 -0.033205
v 0.021302 0.075000 -0.030862
v 0.021302 0.047500 -0.030862
v 0.017427 0.075000 -0.033205
v 0.024867 0.047500 -0.028069
v 0.024867 0.075000 -0.028069
v -0.028069 0.047500 0.024867
v -0.000000 0.047500 -0.037500
v -0.004520 0.047500 0.037227
v 0.035063 0.047500 0.013298
v 0.033205 0.047500 0.017427
v -0.021302 0.075000 0.030862
v -0.024867 0.047500 0.028069
v -0.024867 0.075000 0.028069
v -0.021302 0.047500 0.030862
v 0.001988 0.065380 0.043000
v -0.001988 0.065380 0.043000
v -0.001241 0.065773 0.043000
v 0.003099 0.064126 0.043000
v 0.003398 0.063338 0.043000
v -0.003099 0.064126 0.043000
v -0.003398 0.063338 0.043000
v 0.000422 0.065975 0.043000
v 0.001241 0.065773 0.043000
v -0.002620 0.064821 0.043000
v -0.000422 0.065975 0.043000
v 0.002620 0.064821 0.043000
v -0.008974 0.047500 -0.036410
v -0.037227 0.047500 -0.004520
v -0.030862 0.047500 0.021302
v -0.037227 0.047500 0.004520
v -0.037500 0.047500 -0.000000
v -0.033205 0.047500 -0.017427
v -0.017427 0.047500 -0.033205
v -0.013298 0.047500 -0.035063
v -0.033205 0.047500 0.017427
v -0.021302 0.047500 -0.030862
v -0.004520 0.047500 -0.037227
v -0.004520 0.075000 -0.037227
v -0.008974 0.075000 -0.036410
v -0.017427 0.075000 -0.033205
v -0.021302 0.075000 -0.030862
v 0.004520 0.047500 -0.037227
v 0.008974 0.047500 -0.036410
v 0.008974 0.075000 -0.036410
v 0.004520 0.075000 -0.037227
v 0.028069 0.047500 -0.024867
v 0.028069 0.075000 -0.024867
v 0.030862 0.075000 -0.021302
v 0.030862 0.047500 -0.021302
v 0.036410 0.047500 -0.008974
v 0.035063 0.047500 -0.013298
v 0.035063 0.075000 -0.013298
v 0.036410 0.075000 -0.008974
v -0.000422 0.059026 0.043000
v 0.000422 0.059026 0.043000
v 0.012055 0.082000 0.029102
v 0.015750 0.082000 -0.027280
v 0.012055 0.082000 -0.029102
v -0.031500 0.082000 -0.000000
v -0.031230 0.082000 -0.004112
v -0.029102 0.082000 0.012054
v -0.027280 0.082000 0.015750
v 0.027280 0.082000 -0.015750
v 0.024991 0.082000 -0.019176
v -0.004112 0.082000 0.031230
v -0.008153 0.082000 0.030427
v 0.008153 0.082000 -0.030427
v -0.004112 0.082000 -0.031231
v -0.000000 0.082000 -0.031500
v 0.004112 0.082000 -0.031231
v 0.022274 0.082000 -0.022274
v 0.031230 0.082000 0.004112
v 0.031500 0.082000 -0.000000
v -0.012055 0.082000 0.029102
v -0.029102 0.082000 -0.012055
v -0.030427 0.082000 -0.008153
v 0.029102 0.082000 -0.012055
v 0.019176 0.082000 -0.024991
v 0.030427 0.082000 0.008153
v 0.030427 0.082000 -0.008153
v 0.031230 0.082000 -0.004112
v 0.029102 0.082000 0.012054
v 0.027280 0.082000 0.015750
v -0.024991 0.082000 0.019176
v -0.012055 0.082000 -0.029102
v -0.008153 0.082000 -0.030427
v 0.008153 0.082000 0.030427
v 0.004112 0.082000 0.031230
v -0.031230 0.082000 0.004112
v -0.030427 0.082000 0.008153
v -0.022274 0.082000 0.022274
v -0.019176 0.082000 -0.024991
v -0.015750 0.082000 -0.027280
v -0.015750 0.082000 0.027280
v -0.019176 0.082000 0.024991
v -0.024991 0.082000 -0.019176
v -0.022274 0.082000 -0.022274
v -0.027280 0.082000 -0.015750
v 0.000000 0.082000 0.031500
v 0.024991 0.082000 0.019176
v 0.022274 0.082000 0.022274
v 0.019176 0.082000 0.024991
v 0.015750 0.082000 0.027280
v 0.036410 0.047500 0.008974
v 0.036410 0.075000 0.008974
v 0.035063 0.075000 0.013298
vn -0.0000 -1.0000 -0.0000
vn -0.9982 -0.0000 -0.0604
vn -0.9836 -0.0000 -0.1803
vn -0.9982 -0.0000 0.0604
vn -0.9119 -0.0000 -0.4104
vn -0.0496 0.6514 -0.7571
vn 0.6950 0.6474 -0.3128
vn 0.7585 0.6501 -0.0459
vn 0.8558 -0.0000 0.5173
vn -0.9119 -0.0000 0.4104
vn -0.3150 0.3556 0.8799
vn -0.1579 0.4828 0.8614
vn -0.2271 0.4327 0.8725
vn -0.2725 0.4012 0.8745
vn -0.8558 -0.0000 -0.5173
vn -0.6167 -0.0000 -0.7872
vn -0.7271 0.6481 -0.2266
vn 0.4705 0.6466 -0.6005
vn -0.0459 0.6501 -0.7585
vn 0.0459 0.6501 -0.7585
vn 0.0604 -0.0000 -0.9982
vn 0.0496 0.6514 -0.7571
vn 0.1478 0.6526 -0.7432
vn 0.1371 0.6490 -0.7483
vn -0.0604 -0.0000 -0.9982
vn 0.6783 0.6542 -0.3345
vn 0.6526 0.6469 -0.3945
vn 0.6285 0.6547 -0.4199
vn 0.4982 0.6549 -0.5682
vn 0.8558 -0.0000 -0.5173
vn -0.1220 0.4949 0.8603
vn -0.0459 0.6501 0.7585
vn -0.0000 0.5204 0.8539
vn -0.0515 0.5214 0.8517
vn 0.7167 0.6535 -0.2433
vn 0.7271 0.6481 -0.2266
vn 0.9119 -0.0000 0.4104
vn -0.7271 0.6481 0.2266
vn -0.9836 -0.0000 0.1803
vn -0.6526 0.6469 0.3945
vn -0.8558 -0.0000 0.5173
vn -0.5395 0.6465 0.5395
vn -0.7872 -0.0000 0.6167
vn -0.7071 -0.0000 0.7071
vn 0.0545 -0.4317 0.9004
vn 0.7872 -0.0000 0.6167
vn -0.5395 0.6465 -0.5395
vn -0.6950 0.6474 -0.3128
vn -0.7167 0.6535 -0.2433
vn -0.7483 0.6490 -0.1371
vn -0.7432 0.6526 -0.1478
vn 0.3345 0.6542 -0.6783
vn 0.4199 0.6547 -0.6285
vn 0.3945 0.6469 -0.6526
vn 0.2433 0.6535 -0.7167
vn 0.2266 0.6481 -0.7271
vn 0.3128 0.6474 -0.6950
vn 0.2975 -0.0000 -0.9547
vn 0.4104 -0.0000 -0.9119
vn -0.1371 0.6490 -0.7483
vn -0.4104 -0.0000 -0.9119
vn 0.5395 0.6465 -0.5395
vn 0.5682 0.6549 -0.4982
vn 0.6005 0.6466 -0.4705
vn 0.9119 -0.0000 -0.4104
vn 0.7483 0.6490 -0.1371
vn 0.7432 0.6526 -0.1478
vn 0.7571 0.6514 -0.0496
vn 0.7432 0.6526 0.1478
vn 0.7271 0.6481 0.2266
vn 0.7167 0.6535 0.2433
vn 0.6526 0.6469 0.3945
vn 0.6783 0.6542 0.3345
vn 0.6950 0.6474 0.3128
vn -0.7167 0.6535 0.2433
vn -0.6950 0.6474 0.3128
vn -0.6783 0.6542 0.3345
vn -0.6285 0.6547 0.4199
vn -0.6005 0.6466 0.4705
vn -0.5682 0.6550 0.4982
vn -0.2266 0.6481 0.7271
vn -0.2433 0.6535 0.7167
vn -0.3937 0.2717 0.8782
vn -0.0000 -0.0000 1.0000
vn 0.3937 0.2717 0.8782
vn 0.3150 0.3556 0.8799
vn 0.1220 0.4949 0.8603
vn 0.0515 0.5214 0.8517
vn 0.0459 0.6501 0.7585
vn -0.2810 -0.3283 0.9018
vn 0.5157 -0.0792 0.8531
vn -0.6005 0.6466 -0.4705
vn -0.5682 0.6549 -0.4982
vn -0.7585 0.6501 -0.0459
vn -0.7571 0.6514 -0.0496
vn -0.7585 0.6501 0.0459
vn -0.1478 0.6526 -0.7432
vn -0.2266 0.6481 -0.7271
vn -0.2975 -0.0000 -0.9547
vn -0.4199 0.6547 -0.6285
vn -0.4705 0.6466 -0.6005
vn -0.4982 0.6549 -0.5682
vn -0.3945 0.6469 -0.6526
vn 0.9836 -0.0000 -0.1803
vn 0.7483 0.6490 0.1371
vn 0.7571 0.6514 0.0496
vn 0.7585 0.6501 0.0459
vn -0.0496 0.6514 0.7571
vn -0.1371 0.6490 0.7483
vn -0.1478 0.6526 0.7432
vn -0.3128 0.6474 0.6950
vn -0.3951 0.2702 0.8780
vn -0.4616 0.1751 0.8696
vn -0.5149 0.0960 0.8518
vn -0.4705 0.6466 0.6005
vn -0.4982 0.6549 0.5682
vn -0.5633 -0.0000 0.8262
vn -0.5309 0.0645 0.8450
vn -0.5250 -0.0637 0.8487
vn -0.3659 -0.2526 0.8957
vn -0.2864 -0.3233 0.9019
vn -0.0545 -0.4317 0.9004
vn -0.0000 -0.4307 0.9025
vn -0.4001 -0.2225 0.8890
vn -0.4443 -0.1685 0.8799
vn -0.5157 -0.0792 0.8531
vn 0.1579 0.4828 0.8614
vn 0.2271 0.4327 0.8725
vn 0.2725 0.4012 0.8745
vn 0.5250 -0.0637 0.8487
vn -0.6526 0.6469 -0.3945
vn -0.6285 0.6547 -0.4199
vn -0.6783 0.6542 -0.3345
vn -0.7571 0.6514 0.0496
vn -0.7432 0.6526 0.1478
vn -0.7483 0.6490 0.1371
vn -0.2433 0.6535 -0.7167
vn -0.3128 0.6474 -0.6950
vn -0.3345 0.6542 -0.6783
vn -0.3345 0.6542 0.6783
vn -0.3945 0.6469 0.6526
vn -0.4199 0.6547 0.6285
vn -0.1026 -0.4161 0.9035
vn -0.1654 -0.3980 0.9024
vn -0.1982 -0.3776 0.9045
vn 0.0496 0.6514 0.7571
vn 0.1371 0.6490 0.7483
vn 0.6285 0.6547 0.4199
vn 0.7071 -0.0000 0.7071
vn 0.1026 -0.4161 0.9035
vn 0.1654 -0.3980 0.9024
vn 0.9982 -0.0000 0.0604
vn 0.9982 -0.0000 -0.0604
vn 0.2266 0.6481 0.7271
vn 0.1478 0.6526 0.7432
vn 0.5395 0.6465 0.5395
vn 0.5682 0.6550 0.4982
vn 0.6005 0.6466 0.4705
vn 0.4982 0.6549 0.5682
vn 0.4616 0.1751 0.8696
vn 0.3951 0.2702 0.8780
vn 0.9836 -0.0000 0.1803
vn 0.2433 0.6535 0.7167
vn 0.3128 0.6474 0.6950
vn 0.3345 0.6542 0.6783
vn 0.4199 0.6547 0.6285
vn 0.3945 0.6469 0.6526
vn 0.4705 0.6466 0.6005
vn 0.5633 -0.0000 0.8262
vn 0.5309 0.0645 0.8450
vn 0.5149 0.0960 0.8518
vn 0.6167 -0.0000 0.7872
vn 0.1982 -0.3776 0.9045
vn 0.2810 -0.3283 0.9018
vn 0.2864 -0.3233 0.9019
vn 0.4443 -0.1685 0.8799
vn 0.4001 -0.2225 0.8890
vn 0.3659 -0.2526 0.8957
vn -0.9547 -0.0000 -0.2975
vn -0.7872 -0.0000 -0.6167
vn -0.9547 -0.0000 0.2975
vn -0.7071 -0.0000 -0.7071
vn 0.5173 -0.0000 -0.8558
vn 0.6167 -0.0000 -0.7872
vn -0.6167 -0.0000 0.7872
vn -0.1803 -0.0000 -0.9836
vn -0.5173 -0.0000 -0.8558
vn 0.1803 -0.0000 -0.9836
vn 0.7872 -0.0000 -0.6167
vn 0.7071 -0.0000 -0.7071
vn 0.9547 -0.0000 -0.2975
vn -0.0000 1.0000 -0.0000
vn 0.9547 -0.0000 0.2975
s 0
f 80//1 82//1 2//1
f 10//2 103//2 11//2
f 60//3 10//3 61//3
f 103//4 102//4 11//4
f 103//2 10//2 100//2
f 60//3 100//3 10//3
f 58//5 104//5 59//5
f 141//6 110//6 140//6
f 149//7 124//7 13//7
f 145//8 33//8 34//8
f 38//9 2//9 82//9
f 11//4 102//4 25//4
f 107//10 6//10 67//10
f 67//10 6//10 69//10
f 88//11 16//11 96//11
f 15//12 89//12 14//12
f 15//13 88//13 89//13
f 15//14 16//14 88//14
f 24//15 65//15 104//15
f 104//5 58//5 24//5
f 104//15 65//15 63//15
f 108//16 71//16 113//16
f 148//17 58//17 61//17
f 73//18 150//18 77//18
f 1//19 110//19 141//19
f 117//20 1//20 141//20
f 1//21 117//21 79//21
f 142//22 117//22 141//22
f 142//23 139//23 116//23
f 142//24 116//24 117//24
f 109//25 1//25 79//25
f 110//25 1//25 109//25
f 149//26 13//26 135//26
f 135//27 13//27 120//27
f 136//28 135//28 120//28
f 150//29 143//29 77//29
f 120//30 13//30 121//30
f 89//31 97//31 14//31
f 9//32 171//32 14//32
f 9//33 97//33 94//33
f 9//34 14//34 97//34
f 152//35 124//35 149//35
f 152//36 125//36 124//36
f 178//37 82//37 81//37
f 66//38 69//38 162//38
f 66//39 102//39 68//39
f 66//39 25//39 102//39
f 134//40 6//40 7//40
f 101//41 6//41 107//41
f 6//41 101//41 7//41
f 8//42 85//42 163//42
f 8//43 101//43 78//43
f 101//43 8//43 7//43
f 84//1 78//1 86//1
f 84//44 8//44 78//44
f 8//44 84//44 85//44
f 19//1 80//1 32//1
f 19//45 32//45 127//45
f 2//46 38//46 39//46
f 39//1 80//1 2//1
f 70//16 113//16 71//16
f 70//47 62//47 169//47
f 147//48 24//48 58//48
f 148//49 147//49 58//49
f 132//50 61//50 10//50
f 132//51 148//51 61//51
f 130//52 129//52 75//52
f 150//53 73//53 129//53
f 129//54 73//54 75//54
f 3//55 139//55 130//55
f 116//56 139//56 3//56
f 3//57 130//57 75//57
f 3//58 4//58 116//58
f 3//59 75//59 4//59
f 111//60 140//60 110//60
f 105//61 26//61 106//61
f 77//62 143//62 119//62
f 119//63 143//63 136//63
f 119//64 136//64 120//64
f 72//59 4//59 75//59
f 72//1 74//1 79//1
f 72//1 79//1 4//1
f 116//58 4//58 115//58
f 115//1 4//1 79//1
f 79//1 74//1 76//1
f 123//65 13//65 124//65
f 153//66 34//66 125//66
f 152//67 153//67 125//67
f 153//68 145//68 34//68
f 177//69 144//69 151//69
f 178//70 177//70 151//70
f 154//71 178//71 151//71
f 5//72 155//72 38//72
f 5//9 38//9 82//9
f 5//37 82//37 178//37
f 5//73 154//73 155//73
f 178//74 154//74 5//74
f 162//75 69//75 133//75
f 133//76 69//76 6//76
f 134//77 133//77 6//77
f 156//78 134//78 7//78
f 156//79 7//79 8//79
f 156//80 8//80 163//80
f 138//81 16//81 15//81
f 138//82 146//82 16//82
f 96//83 16//83 92//83
f 23//84 22//84 93//84
f 90//85 42//85 98//85
f 87//86 98//86 42//86
f 31//87 94//87 95//87
f 31//88 9//88 94//88
f 31//89 171//89 9//89
f 29//1 78//1 80//1
f 29//1 21//1 78//1
f 29//90 30//90 21//90
f 55//1 80//1 54//1
f 47//91 53//91 54//91
f 47//1 54//1 80//1
f 168//92 62//92 65//92
f 169//93 62//93 168//93
f 131//94 10//94 11//94
f 131//95 132//95 10//95
f 11//96 25//96 131//96
f 140//97 111//97 158//97
f 158//98 111//98 26//98
f 106//99 26//99 99//99
f 26//99 111//99 99//99
f 164//100 165//100 113//100
f 164//101 113//101 70//101
f 164//102 70//102 169//102
f 113//103 165//103 112//103
f 112//61 26//61 105//61
f 114//21 79//21 117//21
f 114//1 115//1 79//1
f 76//1 118//1 121//1
f 12//30 121//30 13//30
f 13//65 123//65 12//65
f 12//1 76//1 121//1
f 12//1 123//1 76//1
f 122//104 125//104 34//104
f 122//1 76//1 123//1
f 177//105 41//105 144//105
f 41//106 145//106 144//106
f 33//107 145//107 41//107
f 171//108 137//108 14//108
f 137//109 15//109 14//109
f 137//110 138//110 15//110
f 16//111 146//111 27//111
f 27//112 92//112 16//112
f 27//113 93//113 92//113
f 27//114 83//114 93//114
f 167//115 85//115 83//115
f 163//116 85//116 167//116
f 17//117 83//117 86//117
f 17//118 93//118 83//118
f 86//119 23//119 17//119
f 17//84 23//84 93//84
f 18//84 93//84 22//84
f 18//84 30//84 93//84
f 18//120 22//120 21//120
f 21//121 30//121 18//121
f 126//122 80//122 19//122
f 126//123 19//123 127//123
f 20//124 21//124 22//124
f 23//125 20//125 22//125
f 20//126 23//126 86//126
f 86//1 78//1 20//1
f 78//1 21//1 20//1
f 36//127 31//127 95//127
f 87//128 36//128 95//128
f 36//129 87//129 42//129
f 51//1 32//1 80//1
f 51//1 80//1 55//1
f 91//84 53//84 46//84
f 47//130 46//130 53//130
f 48//1 80//1 39//1
f 48//1 47//1 80//1
f 170//131 65//131 24//131
f 170//132 168//132 65//132
f 147//133 170//133 24//133
f 161//134 131//134 25//134
f 161//135 66//135 162//135
f 161//136 25//136 66//136
f 157//137 158//137 26//137
f 157//138 26//138 112//138
f 157//139 112//139 165//139
f 35//104 122//104 34//104
f 35//1 76//1 122//1
f 166//140 27//140 146//140
f 166//141 83//141 27//141
f 166//142 167//142 83//142
f 126//143 28//143 80//143
f 28//144 29//144 80//144
f 30//145 29//145 28//145
f 28//84 126//84 93//84
f 93//84 30//84 28//84
f 171//146 31//146 160//146
f 160//147 31//147 36//147
f 38//148 155//148 172//148
f 45//149 48//149 39//149
f 32//150 50//150 127//150
f 51//151 50//151 32//151
f 50//84 91//84 127//84
f 33//152 41//152 40//152
f 40//153 34//153 33//153
f 40//153 35//153 34//153
f 35//1 40//1 76//1
f 159//154 36//154 42//154
f 159//155 160//155 36//155
f 173//156 45//156 37//156
f 37//157 172//157 173//157
f 38//158 172//158 37//158
f 37//46 39//46 38//46
f 37//149 45//149 39//149
f 174//159 45//159 173//159
f 44//160 90//160 91//160
f 42//161 90//161 44//161
f 40//1 57//1 76//1
f 57//152 40//152 41//152
f 57//162 41//162 177//162
f 128//163 159//163 42//163
f 42//164 44//164 128//164
f 128//165 44//165 175//165
f 43//166 174//166 175//166
f 175//167 44//167 43//167
f 43//168 45//168 174//168
f 43//169 46//169 47//169
f 91//170 46//170 43//170
f 43//171 44//171 91//171
f 47//172 48//172 43//172
f 48//172 45//172 43//172
f 91//84 50//84 49//84
f 49//84 56//84 91//84
f 49//173 50//173 51//173
f 49//174 51//174 55//174
f 56//175 49//175 55//175
f 54//176 53//176 52//176
f 52//177 55//177 54//177
f 52//178 56//178 55//178
f 52//84 53//84 91//84
f 91//84 56//84 52//84
f 81//1 76//1 176//1
f 57//1 176//1 76//1
f 176//162 57//162 177//162
f 58//179 59//179 60//179
f 58//179 60//179 61//179
f 62//180 64//180 63//180
f 62//180 63//180 65//180
f 66//181 68//181 67//181
f 66//181 67//181 69//181
f 70//182 71//182 64//182
f 64//182 62//182 70//182
f 72//183 73//183 74//183
f 75//183 73//183 72//183
f 74//184 73//184 76//184
f 76//184 73//184 77//184
f 76//1 78//1 79//1
f 76//1 80//1 78//1
f 76//1 82//1 80//1
f 81//1 82//1 76//1
f 83//185 85//185 84//185
f 83//185 84//185 86//185
f 89//84 88//84 87//84
f 90//84 87//84 91//84
f 87//84 92//84 93//84
f 95//84 94//84 87//84
f 87//84 88//84 96//84
f 94//84 97//84 87//84
f 87//84 97//84 89//84
f 87//84 93//84 91//84
f 96//84 92//84 87//84
f 87//84 90//84 98//84
f 60//1 59//1 99//1
f 99//1 67//1 68//1
f 99//1 100//1 60//1
f 99//1 78//1 101//1
f 68//1 102//1 99//1
f 99//1 63//1 64//1
f 99//1 102//1 103//1
f 99//1 59//1 104//1
f 103//1 100//1 99//1
f 99//1 105//1 106//1
f 64//1 71//1 99//1
f 107//1 67//1 99//1
f 99//1 79//1 78//1
f 104//1 63//1 99//1
f 99//1 71//1 108//1
f 99//1 109//1 79//1
f 99//1 101//1 107//1
f 108//1 105//1 99//1
f 110//186 109//186 99//186
f 99//186 111//186 110//186
f 112//187 105//187 108//187
f 112//187 108//187 113//187
f 116//188 115//188 114//188
f 114//188 117//188 116//188
f 118//189 119//189 120//189
f 120//189 121//189 118//189
f 118//190 76//190 77//190
f 77//190 119//190 118//190
f 122//191 123//191 124//191
f 124//191 125//191 122//191
f 91//84 93//84 126//84
f 127//84 91//84 126//84
f 128//192 129//192 130//192
f 132//192 131//192 128//192
f 128//192 133//192 134//192
f 128//192 135//192 136//192
f 138//192 137//192 128//192
f 128//192 130//192 139//192
f 141//192 140//192 128//192
f 139//192 142//192 128//192
f 136//192 143//192 128//192
f 128//192 144//192 145//192
f 146//192 138//192 128//192
f 128//192 147//192 148//192
f 148//192 132//192 128//192
f 128//192 142//192 141//192
f 149//192 135//192 128//192
f 128//192 143//192 150//192
f 151//192 144//192 128//192
f 128//192 152//192 149//192
f 128//192 153//192 152//192
f 128//192 155//192 154//192
f 134//192 156//192 128//192
f 158//192 157//192 128//192
f 160//192 159//192 128//192
f 150//192 129//192 128//192
f 131//192 161//192 128//192
f 145//192 153//192 128//192
f 128//192 154//192 151//192
f 162//192 133//192 128//192
f 128//192 156//192 163//192
f 165//192 164//192 128//192
f 167//192 166//192 128//192
f 169//192 168//192 128//192
f 168//192 170//192 128//192
f 140//192 158//192 128//192
f 128//192 164//192 169//192
f 128//192 137//192 171//192
f 163//192 167//192 128//192
f 128//192 173//192 172//192
f 128//192 170//192 147//192
f 128//192 161//192 162//192
f 128//192 157//192 165//192
f 128//192 166//192 146//192
f 171//192 160//192 128//192
f 128//192 172//192 155//192
f 128//192 174//192 173//192
f 174//192 128//192 175//192
f 176//193 177//193 178//193
f 176//193 178//193 81//193
